<?xml version="1.0" encoding="utf-8"?>
<!-- Generator: Adobe Illustrator 24.3.0, SVG Export Plug-In . SVG Version: 6.00 Build 0)  -->
<svg version="1.1" id="Layer_1" xmlns="http://www.w3.org/2000/svg" xmlns:xlink="http://www.w3.org/1999/xlink" x="0px" y="0px"
	 viewBox="0 0 3000 1000" style="enable-background:new 0 0 3000 1000;" xml:space="preserve">
<style type="text/css">
	.st0{fill:url(#SVGID_1_);}
	.st1{fill:url(#SVGID_2_);}
	.st2{fill:url(#SVGID_3_);}
	.st3{fill:url(#SVGID_4_);}
	.st4{fill:url(#SVGID_5_);}
	.st5{fill:url(#SVGID_6_);}
	.st6{fill:url(#SVGID_7_);}
	.st7{fill:url(#SVGID_8_);}
	.st8{fill:url(#SVGID_9_);}
	.st9{fill:url(#SVGID_10_);}
	.st10{fill:url(#SVGID_11_);}
	.st11{fill:url(#SVGID_12_);}
	.st12{fill:url(#SVGID_13_);}
	.st13{fill:url(#SVGID_14_);}
	.st14{fill:url(#SVGID_15_);}
	.st15{fill:url(#SVGID_16_);}
	.st16{fill:url(#SVGID_17_);}
	.st17{fill:url(#SVGID_18_);}
	.st18{fill:url(#SVGID_19_);}
	.st19{fill:url(#SVGID_20_);}
	.st20{fill:url(#SVGID_21_);}
	.st21{fill:url(#SVGID_22_);}
	.st22{fill:url(#SVGID_23_);}
	.st23{fill:url(#SVGID_24_);}
	.st24{fill:url(#SVGID_25_);}
	.st25{fill:url(#SVGID_26_);}
	.st26{fill:url(#SVGID_27_);}
	.st27{fill:url(#SVGID_28_);}
	.st28{fill:url(#SVGID_29_);}
	.st29{fill:url(#SVGID_30_);}
	.st30{fill:url(#SVGID_31_);}
	.st31{fill:url(#SVGID_32_);}
	.st32{fill:url(#SVGID_33_);}
	.st33{fill:url(#SVGID_34_);}
	.st34{fill:url(#SVGID_35_);}
	.st35{fill-rule:evenodd;clip-rule:evenodd;fill:url(#SVGID_36_);}
	.st36{fill-rule:evenodd;clip-rule:evenodd;fill:url(#SVGID_37_);}
	.st37{fill-rule:evenodd;clip-rule:evenodd;fill:url(#SVGID_38_);}
	.st38{fill:url(#SVGID_39_);}
</style>
<g>
	<g>
		<linearGradient id="SVGID_1_" gradientUnits="userSpaceOnUse" x1="390.8472" y1="655.1013" x2="3381.8928" y2="-257.2511">
			<stop  offset="0" style="stop-color:#FF1900"/>
			<stop  offset="1" style="stop-color:#FFD200"/>
		</linearGradient>
		<path class="st0" d="M1165.7,325.68H956.1v-50.75h278.12v256.8l25.88,19.79v46.18h-151.24L956.1,421.09v-65.47h209.6V325.68z
			 M1165.7,421.09h-123.83l95.92,111.15h27.91V421.09z"/>
		<linearGradient id="SVGID_2_" gradientUnits="userSpaceOnUse" x1="409.3581" y1="715.787" x2="3400.4036" y2="-196.5654">
			<stop  offset="0" style="stop-color:#FF1900"/>
			<stop  offset="1" style="stop-color:#FFD200"/>
		</linearGradient>
		<path class="st1" d="M1355,274.93v256.8l25.88,19.79v46.18h-94.4V325.68h-16.24v-50.75H1355z"/>
		<linearGradient id="SVGID_3_" gradientUnits="userSpaceOnUse" x1="420.2442" y1="751.4761" x2="3411.2898" y2="-160.8764">
			<stop  offset="0" style="stop-color:#FF1900"/>
			<stop  offset="1" style="stop-color:#FFD200"/>
		</linearGradient>
		<path class="st2" d="M1526.03,274.93v50.75h-10.66l-40.6,79.17v126.88l25.88,19.79v46.18h-60.39l-34-30.45V381l29.94-55.32h-29.94
			v-50.75H1526.03z"/>
		<linearGradient id="SVGID_4_" gradientUnits="userSpaceOnUse" x1="441.8011" y1="822.1478" x2="3432.8464" y2="-90.2046">
			<stop  offset="0" style="stop-color:#FF1900"/>
			<stop  offset="1" style="stop-color:#FFD200"/>
		</linearGradient>
		<path class="st3" d="M1685.38,597.71l-127.89-74.6v-38.57l60.9-70.54l-66.99-65.98v-73.08h284.71v256.8l25.88,19.79v46.18H1685.38
			z M1599.61,649.47c-11.51,0-21.32-4.06-29.44-12.18c-8.12-8.12-12.18-18.1-12.18-29.94c0-10.82,4.06-20.3,12.18-28.42
			c8.12-8.12,17.93-12.18,29.44-12.18c11.5,0,21.48,4.06,29.94,12.18c8.12,8.12,12.18,17.6,12.18,28.42
			c0,11.84-4.06,21.82-12.18,29.94C1621.09,645.41,1611.11,649.47,1599.61,649.47z M1633.62,493.16l68.51,39.08h65.47V325.68
			h-134.49v4.57l74.6,79.68L1633.62,493.16z"/>
		<linearGradient id="SVGID_5_" gradientUnits="userSpaceOnUse" x1="460.5927" y1="883.754" x2="3451.6382" y2="-28.5984">
			<stop  offset="0" style="stop-color:#FF1900"/>
			<stop  offset="1" style="stop-color:#FFD200"/>
		</linearGradient>
		<path class="st4" d="M1956.89,274.93v256.8l25.88,19.79v46.18h-94.4V325.68h-16.24v-50.75H1956.89z"/>
		<linearGradient id="SVGID_6_" gradientUnits="userSpaceOnUse" x1="480.2054" y1="948.0521" x2="3471.251" y2="35.6997">
			<stop  offset="0" style="stop-color:#FF1900"/>
			<stop  offset="1" style="stop-color:#FFD200"/>
		</linearGradient>
		<path class="st5" d="M2008.15,274.93h273.55v256.8l25.88,19.79v46.18h-94.4V457.63h-109.03l-21.91,23.85v63.95h29.94
			c12.51,0,21.82-6.93,27.91-20.81c0.67-2.03,1.01-4.06,1.01-6.09c0-2.7-1.01-4.57-3.04-5.58c-7.11,7.79-13.2,11.67-18.27,11.67
			c-4.74,0-9.31-1.18-13.7-3.55c-7.11-4.73-10.66-11.5-10.66-20.3c0-5.08,1.01-10.66,3.04-16.75c4.39-5.75,8.12-9.3,11.17-10.66
			c2.36-0.67,5.24-1.01,8.63-1.01c1.69,0,3.55,0.17,5.58,0.51c22.33,4.4,39.59,23.18,51.77,56.33c2.03,5.76,3.04,11.67,3.04,17.76
			c0,16.24-6.94,33.33-20.81,51.26h-137.54V455.1l37.05-40.09l-49.23-32.99V274.93z M2213.18,325.68h-123.83l0.51,40.8l36.03,25.68
			h87.29V325.68z"/>
		<linearGradient id="SVGID_7_" gradientUnits="userSpaceOnUse" x1="499.3431" y1="1010.7931" x2="3490.3887" y2="98.4407">
			<stop  offset="0" style="stop-color:#FF1900"/>
			<stop  offset="1" style="stop-color:#FFD200"/>
		</linearGradient>
		<path class="st6" d="M2431.92,325.68l-26.39,72.07l26.9,59.38v140.58h-97.95v-50.75h27.41V468.8l-27.41-62.93l22.33-80.19h-23.85
			v-50.75h98.96V325.68z"/>
		<linearGradient id="SVGID_8_" gradientUnits="userSpaceOnUse" x1="509.5815" y1="1044.3584" x2="3500.627" y2="132.0059">
			<stop  offset="0" style="stop-color:#FF1900"/>
			<stop  offset="1" style="stop-color:#FFD200"/>
		</linearGradient>
		<path class="st7" d="M2532.41,274.93v256.8l25.88,19.79v46.18h-94.4V325.68h-16.24v-50.75H2532.41z"/>
		<linearGradient id="SVGID_9_" gradientUnits="userSpaceOnUse" x1="512.5865" y1="1054.21" x2="3503.6321" y2="141.8576">
			<stop  offset="0" style="stop-color:#FF1900"/>
			<stop  offset="1" style="stop-color:#FFD200"/>
		</linearGradient>
		<path class="st8" d="M2776.52,437.84h-31.47c-14.89,0-25.72,7.28-32.48,21.82c-1.01,5.76-0.34,9.82,2.03,12.18
			c8.45-8.12,15.73-12.18,21.82-12.18c5.07,0,9.81,1.52,14.21,4.57c9.14,4.4,13.7,11.17,13.7,20.3c0,5.08-1.19,10.83-3.55,17.26
			c-3.73,6.09-8.29,9.82-13.7,11.17c-3.05,0.68-8.46,1.02-16.24,1.02c-26.06-4.73-46.02-24.53-59.89-59.38
			c-8.8-21.65-2.03-45.5,20.3-71.56h153.78v214.68h-261.37V274.93h215.19v-19.29h-131.95c-54.48-1.35-82.22-26.72-83.23-76.13
			l35.53-22.84c-3.73,28.09,14.88,42.31,55.83,42.64l126.88,0.5h42.12v125.86h-191.84v205.54l1.52,1.02h122.82V437.84z"/>
	</g>
	<g>
		<linearGradient id="SVGID_10_" gradientUnits="userSpaceOnUse" x1="917.8035" y1="809.8358" x2="2575.4109" y2="104.6842">
			<stop  offset="4.950500e-03" style="stop-color:#00ABB0"/>
			<stop  offset="0.4876" style="stop-color:#00C07D"/>
			<stop  offset="1" style="stop-color:#7BD14A"/>
		</linearGradient>
		<path class="st9" d="M976.22,760.22l-10.42,20.32v32.56l6.64,5.08v11.85h-15.5l-8.73-7.81v-47.8l14.72-27.22h16.02v13.03H976.22z"
			/>
		<linearGradient id="SVGID_11_" gradientUnits="userSpaceOnUse" x1="926.4155" y1="830.0801" x2="2584.0229" y2="124.9286">
			<stop  offset="4.950500e-03" style="stop-color:#00ABB0"/>
			<stop  offset="0.4876" style="stop-color:#00C07D"/>
			<stop  offset="1" style="stop-color:#7BD14A"/>
		</linearGradient>
		<path class="st10" d="M985.46,747.2h70.2v65.91l6.64,5.08v11.85h-24.23v-35.95h-27.98l-5.62,6.12v16.41h7.68
			c3.21,0,5.6-1.78,7.16-5.34c0.17-0.52,0.26-1.04,0.26-1.56c0-0.69-0.26-1.17-0.78-1.43c-1.82,2-3.39,3-4.69,3
			c-1.22,0-2.39-0.3-3.52-0.91c-1.82-1.22-2.74-2.95-2.74-5.21c0-1.3,0.26-2.74,0.78-4.3c1.13-1.48,2.08-2.39,2.87-2.74
			c0.61-0.17,1.35-0.26,2.21-0.26c0.43,0,0.91,0.04,1.43,0.13c5.73,1.13,10.16,5.95,13.28,14.46c0.52,1.48,0.78,3,0.78,4.56
			c0,4.17-1.78,8.55-5.34,13.16h-35.3v-36.73l9.51-10.29l-12.63-8.47V747.2z M1038.08,760.22h-31.78l0.13,10.47l9.25,6.59h22.4
			V760.22z"/>
		<linearGradient id="SVGID_12_" gradientUnits="userSpaceOnUse" x1="931.4276" y1="841.8619" x2="2589.0349" y2="136.7104">
			<stop  offset="4.950500e-03" style="stop-color:#00ABB0"/>
			<stop  offset="0.4876" style="stop-color:#00C07D"/>
			<stop  offset="1" style="stop-color:#7BD14A"/>
		</linearGradient>
		<path class="st11" d="M1086.4,742.38v70.72l6.64,5.08v11.85h-24.23v-97.95l47.15-25.66l47.15,25.53l-9.12,14.98l-38.03-20.71
			L1086.4,742.38z"/>
		<linearGradient id="SVGID_13_" gradientUnits="userSpaceOnUse" x1="943.5698" y1="870.4048" x2="2601.177" y2="165.2533">
			<stop  offset="4.950500e-03" style="stop-color:#00ABB0"/>
			<stop  offset="0.4876" style="stop-color:#00C07D"/>
			<stop  offset="1" style="stop-color:#7BD14A"/>
		</linearGradient>
		<path class="st12" d="M1153.48,768.69l18.36,7.95v53.4h-72.03v-65.12h18.36v48.32h35.3v-24.62l-17.19,13.42l-9.12-13.94v-27.87
			h-27.35V747.2h72.16v13.03h-28.13v15.63L1153.48,768.69z"/>
		<linearGradient id="SVGID_14_" gradientUnits="userSpaceOnUse" x1="952.1619" y1="890.6023" x2="2609.7693" y2="185.4508">
			<stop  offset="4.950500e-03" style="stop-color:#00ABB0"/>
			<stop  offset="0.4876" style="stop-color:#00C07D"/>
			<stop  offset="1" style="stop-color:#7BD14A"/>
		</linearGradient>
		<path class="st13" d="M1210.53,747.2v13.03h-2.74l-10.42,20.32v32.56l6.64,5.08v11.85h-15.5l-8.73-7.81v-47.8l7.68-14.2h-7.68
			V747.2H1210.53z"/>
		<linearGradient id="SVGID_15_" gradientUnits="userSpaceOnUse" x1="961.682" y1="912.9814" x2="2619.2893" y2="207.8299">
			<stop  offset="4.950500e-03" style="stop-color:#00ABB0"/>
			<stop  offset="0.4876" style="stop-color:#00C07D"/>
			<stop  offset="1" style="stop-color:#7BD14A"/>
		</linearGradient>
		<path class="st14" d="M1326.58,813.1h-33.6c-4.43-5.56-5.82-10.68-4.17-15.37c2.78-7.38,6.77-11.59,11.98-12.63
			c1.48-0.09,2.56,0,3.26,0.26c0.69,0.18,1.56,0.91,2.6,2.21c0.52,1.39,0.78,2.65,0.78,3.78c0,2-0.91,3.52-2.74,4.56
			c-0.87,0.52-1.82,0.78-2.87,0.78c-1.22,0-2.65-0.87-4.3-2.6c-0.61,0.44-0.78,1.3-0.52,2.6c1.21,3.13,3.39,4.69,6.51,4.69h6.64
			v-18.5h-25.79v30.22l6.64,5.08v11.85h-36.73l-37.12-47.24v-16.71h49.62v-5.86h-49.75V747.2h109.8v13.03h-42.46v5.86h42.2V813.1z
			 M1266.79,782.89h-28.39l23.83,30.22h4.56V782.89z"/>
		<linearGradient id="SVGID_16_" gradientUnits="userSpaceOnUse" x1="980.473" y1="957.1536" x2="2638.0803" y2="252.0021">
			<stop  offset="4.950500e-03" style="stop-color:#00ABB0"/>
			<stop  offset="0.4876" style="stop-color:#00C07D"/>
			<stop  offset="1" style="stop-color:#7BD14A"/>
		</linearGradient>
		<path class="st15" d="M1394.43,760.22h-59.78V747.2h77.37v65.91l6.64,5.08v11.85h-24.23v-40.9h-4.96l-5.1,5.6l-9.54,10.68
			l-9.67-10.68l-5.09-5.6h-9.54v27.87h6.64c3.21,0,5.51-1.69,6.9-5.08c0.17-0.52,0.26-1,0.26-1.43c0-0.78-0.26-1.26-0.78-1.43
			c-1.74,1.91-3.21,2.86-4.43,2.86c-1.22,0-2.39-0.3-3.52-0.91c-1.74-1.22-2.6-2.91-2.6-5.08c0-0.87,0.13-1.78,0.39-2.74l0.39-1.3
			c1.13-1.48,2.08-2.34,2.87-2.6c0.61-0.26,1.3-0.39,2.08-0.39c0.43,0,0.91,0.04,1.43,0.13c5.47,1.13,9.72,5.82,12.76,14.07
			c0.52,1.39,0.78,2.86,0.78,4.42c0,3.87-1.74,8.04-5.21,12.51h-33.86v-58.61h28.13v0.26l0.39-0.26l11.72,12.89l11.46-12.76v-0.13
			h8.08V760.22z"/>
		<linearGradient id="SVGID_17_" gradientUnits="userSpaceOnUse" x1="999.5607" y1="1002.0233" x2="2657.168" y2="296.8718">
			<stop  offset="4.950500e-03" style="stop-color:#00ABB0"/>
			<stop  offset="0.4876" style="stop-color:#00C07D"/>
			<stop  offset="1" style="stop-color:#7BD14A"/>
		</linearGradient>
		<path class="st16" d="M1502.67,763.35h-9.38c-3.73,0-6.47,2.04-8.21,6.12c-0.26,1.65-0.04,2.78,0.65,3.39
			c2.08-2.26,3.86-3.39,5.34-3.39c1.39,0,2.65,0.35,3.78,1.04c2.26,1.39,3.39,3.39,3.39,5.99c0,1.48-0.31,3.08-0.91,4.82
			c-0.87,1.74-2,2.78-3.39,3.13c-1.13,0.35-2.52,0.44-4.17,0.26c-6.51-1.3-11.55-6.86-15.11-16.67c-2.08-6.16-0.35-12.89,5.21-20.19
			h41.16v82.19h-38.29l-31.52-15.77v-36.33h17.97v27.61l17.58,7.69h15.89V763.35z"/>
		<linearGradient id="SVGID_18_" gradientUnits="userSpaceOnUse" x1="1009.712" y1="1025.886" x2="2667.3193" y2="320.7344">
			<stop  offset="4.950500e-03" style="stop-color:#00ABB0"/>
			<stop  offset="0.4876" style="stop-color:#00C07D"/>
			<stop  offset="1" style="stop-color:#7BD14A"/>
		</linearGradient>
		<path class="st17" d="M1540.44,776.11v15.37h5.86c2.43,0,4.21-1.35,5.34-4.04c0.17-0.35,0.26-0.69,0.26-1.04
			c0-0.61-0.22-1-0.65-1.17c-1.3,1.48-2.47,2.21-3.52,2.21c-0.87,0-1.74-0.22-2.6-0.65c-1.39-0.87-2.08-2.17-2.08-3.91
			c0-1.04,0.22-2.08,0.65-3.13c0.87-1.21,1.61-1.91,2.21-2.08c0.43-0.17,0.95-0.26,1.56-0.26h1.17c4.25,0.87,7.55,4.52,9.9,10.94
			c0.43,1.13,0.65,2.26,0.65,3.39c0,3.13-1.35,6.38-4.04,9.77h-26.31v-38.68h32.56v-2.6h-32.56V747.2h77.24v13.03h-28v15.63
			l9.64-7.16l18.36,7.95v53.4h-77.24v-25.53h18.36v8.73h40.51v-24.62l-17.19,13.42l-9.12-13.94v-11.98H1540.44z"/>
		<linearGradient id="SVGID_19_" gradientUnits="userSpaceOnUse" x1="1023.8027" y1="1059.0092" x2="2681.4099" y2="353.8577">
			<stop  offset="4.950500e-03" style="stop-color:#00ABB0"/>
			<stop  offset="0.4876" style="stop-color:#00C07D"/>
			<stop  offset="1" style="stop-color:#7BD14A"/>
		</linearGradient>
		<path class="st18" d="M1667.95,760.22l-10.42,20.32v32.56l6.64,5.08v11.85h-15.5l-8.73-7.81v-47.8l14.72-27.22h16.02v13.03
			H1667.95z"/>
		<linearGradient id="SVGID_20_" gradientUnits="userSpaceOnUse" x1="1032.0455" y1="1078.3856" x2="2689.6528" y2="373.2341">
			<stop  offset="4.950500e-03" style="stop-color:#00ABB0"/>
			<stop  offset="0.4876" style="stop-color:#00C07D"/>
			<stop  offset="1" style="stop-color:#7BD14A"/>
		</linearGradient>
		<path class="st19" d="M1730.86,768.69l18.36,7.95v53.4h-72.03v-65.12h18.36v48.32h35.3v-24.62l-17.19,13.42l-9.12-13.94v-27.87
			h-27.35V747.2h72.16v13.03h-28.13v15.63L1730.86,768.69z"/>
		<linearGradient id="SVGID_21_" gradientUnits="userSpaceOnUse" x1="1037.701" y1="1091.6803" x2="2695.3083" y2="386.5287">
			<stop  offset="4.950500e-03" style="stop-color:#00ABB0"/>
			<stop  offset="0.4876" style="stop-color:#00C07D"/>
			<stop  offset="1" style="stop-color:#7BD14A"/>
		</linearGradient>
		<path class="st20" d="M1757.17,760.22V747.2h50.67v13.03H1757.17z M1807.83,764.91v15.24h-36.47v18.23h6.77
			c2.95,0,5.12-1.65,6.51-4.95c0.17-0.43,0.26-0.87,0.26-1.3c0-0.69-0.26-1.13-0.78-1.3c-1.56,1.74-3,2.6-4.3,2.6
			c-1.04,0-2.08-0.26-3.13-0.78c-1.56-1.04-2.34-2.6-2.34-4.69c0-1.22,0.22-2.47,0.65-3.78c1.04-1.39,1.91-2.21,2.6-2.47
			c0.52-0.17,1.17-0.26,1.95-0.26h1.3c5.12,1.04,9.12,5.47,11.98,13.29c0.52,1.3,0.78,2.65,0.78,4.04c0,3.82-1.65,7.77-4.95,11.85
			h-31.52v-45.72H1807.83z"/>
		<linearGradient id="SVGID_22_" gradientUnits="userSpaceOnUse" x1="1045.9991" y1="1111.1865" x2="2703.6064" y2="406.0351">
			<stop  offset="4.950500e-03" style="stop-color:#00ABB0"/>
			<stop  offset="0.4876" style="stop-color:#00C07D"/>
			<stop  offset="1" style="stop-color:#7BD14A"/>
		</linearGradient>
		<path class="st21" d="M1851.33,789.01h-8.08c-3.82,0-6.6,1.87-8.34,5.6c-0.26,1.48-0.09,2.52,0.52,3.13
			c2.17-2.08,4.04-3.13,5.6-3.13c1.3,0,2.52,0.39,3.65,1.17c2.34,1.13,3.52,2.87,3.52,5.21c0,1.3-0.31,2.78-0.91,4.43
			c-0.96,1.56-2.13,2.52-3.52,2.86c-0.78,0.18-2.17,0.26-4.17,0.26c-6.69-1.21-11.81-6.29-15.37-15.24
			c-2.26-5.56-0.52-11.68,5.21-18.36h39.46v55.09h-67.08V747.2h55.22v-4.95h-33.86c-13.98-0.35-21.1-6.86-21.36-19.54l9.12-5.86
			c-0.96,7.21,3.82,10.86,14.33,10.94l32.56,0.13h10.81v32.3h-49.23v52.75l0.39,0.26h31.52V789.01z"/>
		<linearGradient id="SVGID_23_" gradientUnits="userSpaceOnUse" x1="1058.6798" y1="1140.9954" x2="2716.2871" y2="435.8438">
			<stop  offset="4.950500e-03" style="stop-color:#00ABB0"/>
			<stop  offset="0.4876" style="stop-color:#00C07D"/>
			<stop  offset="1" style="stop-color:#7BD14A"/>
		</linearGradient>
		<path class="st22" d="M1894.58,747.2v65.91l6.64,5.08v11.85h-24.23v-69.81h-4.17V747.2H1894.58z"/>
		<linearGradient id="SVGID_24_" gradientUnits="userSpaceOnUse" x1="1068.2897" y1="1163.5853" x2="2725.897" y2="458.4338">
			<stop  offset="4.950500e-03" style="stop-color:#00ABB0"/>
			<stop  offset="0.4876" style="stop-color:#00C07D"/>
			<stop  offset="1" style="stop-color:#7BD14A"/>
		</linearGradient>
		<path class="st23" d="M1967.51,760.22h-59.78V747.2h77.37v65.91l6.64,5.08v11.85h-24.23v-40.9h-4.96l-5.1,5.6l-9.54,10.68
			l-9.67-10.68l-5.09-5.6h-9.54v27.87h6.64c3.21,0,5.51-1.69,6.9-5.08c0.17-0.52,0.26-1,0.26-1.43c0-0.78-0.26-1.26-0.78-1.43
			c-1.74,1.91-3.21,2.86-4.43,2.86c-1.22,0-2.39-0.3-3.52-0.91c-1.74-1.22-2.61-2.91-2.61-5.08c0-0.87,0.13-1.78,0.39-2.74l0.39-1.3
			c1.13-1.48,2.08-2.34,2.87-2.6c0.61-0.26,1.3-0.39,2.08-0.39c0.43,0,0.91,0.04,1.43,0.13c5.47,1.13,9.72,5.82,12.76,14.07
			c0.52,1.39,0.78,2.86,0.78,4.42c0,3.87-1.74,8.04-5.21,12.51h-33.86v-58.61h28.13v0.26l0.39-0.26l11.72,12.89l11.46-12.76v-0.13
			h8.08V760.22z"/>
		<linearGradient id="SVGID_25_" gradientUnits="userSpaceOnUse" x1="1087.3774" y1="1208.455" x2="2744.9849" y2="503.3035">
			<stop  offset="4.950500e-03" style="stop-color:#00ABB0"/>
			<stop  offset="0.4876" style="stop-color:#00C07D"/>
			<stop  offset="1" style="stop-color:#7BD14A"/>
		</linearGradient>
		<path class="st24" d="M2075.75,763.35h-9.38c-3.73,0-6.47,2.04-8.2,6.12c-0.26,1.65-0.05,2.78,0.65,3.39
			c2.08-2.26,3.86-3.39,5.34-3.39c1.39,0,2.65,0.35,3.78,1.04c2.26,1.39,3.39,3.39,3.39,5.99c0,1.48-0.31,3.08-0.91,4.82
			c-0.87,1.74-2,2.78-3.39,3.13c-1.13,0.35-2.52,0.44-4.17,0.26c-6.51-1.3-11.55-6.86-15.11-16.67c-2.08-6.16-0.35-12.89,5.21-20.19
			h41.16v82.19h-38.29l-31.52-15.77v-36.33h17.97v27.61l17.58,7.69h15.89V763.35z"/>
		<linearGradient id="SVGID_26_" gradientUnits="userSpaceOnUse" x1="1097.1295" y1="1231.3794" x2="2754.7368" y2="526.2278">
			<stop  offset="4.950500e-03" style="stop-color:#00ABB0"/>
			<stop  offset="0.4876" style="stop-color:#00C07D"/>
			<stop  offset="1" style="stop-color:#7BD14A"/>
		</linearGradient>
		<path class="st25" d="M2155.59,768.69l18.36,7.95v53.4h-72.03v-65.12h18.36v48.32h35.3v-24.62l-17.19,13.42l-9.12-13.94v-27.87
			h-27.35V747.2h72.16v13.03h-28.13v15.63L2155.59,768.69z"/>
		<linearGradient id="SVGID_27_" gradientUnits="userSpaceOnUse" x1="1101.9918" y1="1242.8092" x2="2759.5991" y2="537.6577">
			<stop  offset="4.950500e-03" style="stop-color:#00ABB0"/>
			<stop  offset="0.4876" style="stop-color:#00C07D"/>
			<stop  offset="1" style="stop-color:#7BD14A"/>
		</linearGradient>
		<path class="st26" d="M2199.48,742.38v70.72l6.64,5.08v11.85h-24.23v-97.95l47.15-25.66l47.15,25.53l-9.12,14.98l-38.03-20.71
			L2199.48,742.38z"/>
		<linearGradient id="SVGID_28_" gradientUnits="userSpaceOnUse" x1="1114.5033" y1="1272.22" x2="2772.1106" y2="567.0685">
			<stop  offset="4.950500e-03" style="stop-color:#00ABB0"/>
			<stop  offset="0.4876" style="stop-color:#00C07D"/>
			<stop  offset="1" style="stop-color:#7BD14A"/>
		</linearGradient>
		<path class="st27" d="M2212.89,747.2h70.2v65.91l6.64,5.08v11.85h-24.23v-35.95h-27.98l-5.62,6.12v16.41h7.69
			c3.21,0,5.6-1.78,7.16-5.34c0.17-0.52,0.26-1.04,0.26-1.56c0-0.69-0.26-1.17-0.78-1.43c-1.82,2-3.39,3-4.69,3
			c-1.22,0-2.39-0.3-3.52-0.91c-1.82-1.22-2.74-2.95-2.74-5.21c0-1.3,0.26-2.74,0.78-4.3c1.13-1.48,2.08-2.39,2.87-2.74
			c0.61-0.17,1.34-0.26,2.21-0.26c0.43,0,0.91,0.04,1.43,0.13c5.73,1.13,10.16,5.95,13.29,14.46c0.52,1.48,0.78,3,0.78,4.56
			c0,4.17-1.78,8.55-5.34,13.16h-35.3v-36.73l9.51-10.29l-12.63-8.47V747.2z M2265.51,760.22h-31.78l0.13,10.47l9.25,6.59h22.4
			V760.22z"/>
		<linearGradient id="SVGID_29_" gradientUnits="userSpaceOnUse" x1="1128.5541" y1="1305.2494" x2="2786.1614" y2="600.0979">
			<stop  offset="4.950500e-03" style="stop-color:#00ABB0"/>
			<stop  offset="0.4876" style="stop-color:#00C07D"/>
			<stop  offset="1" style="stop-color:#7BD14A"/>
		</linearGradient>
		<path class="st28" d="M2365.54,752.02v-4.82h24.23v13.03h-6.64v52.88l6.64,5.08v11.85h-24.23v-56.92
			c-2.33-4.17-5.45-7.42-9.33-9.77h-11.67l-8.04,7.94v16.28h7.55c3.21,0,5.56-1.65,7.03-4.95c0.17-0.52,0.26-1.04,0.26-1.56
			c0-0.61-0.26-1.04-0.78-1.3c-1.74,1.91-3.26,2.87-4.56,2.87c-1.22,0-2.39-0.3-3.52-0.91c-1.74-1.13-2.6-2.78-2.6-4.95
			c0-1.22,0.26-2.56,0.78-4.04c0.87-1.39,1.78-2.21,2.74-2.47c0.61-0.17,1.35-0.26,2.21-0.26c0.43,0,0.91,0.04,1.43,0.13
			c5.64,1.04,9.98,5.56,13.02,13.55c0.52,1.39,0.78,2.82,0.78,4.3c0,3.91-1.74,8.03-5.21,12.37h-54.05
			c-3.47-4.34-5.21-8.47-5.21-12.37c0-1.48,0.26-2.91,0.78-4.3c3.04-7.99,7.38-12.5,13.02-13.55c0.52-0.09,1-0.13,1.43-0.13
			c0.78,0,1.48,0.09,2.08,0.26c0.95,0.26,1.91,1.09,2.87,2.47c0.52,1.48,0.78,2.82,0.78,4.04c0,2.17-0.91,3.82-2.74,4.95
			c-1.13,0.61-2.26,0.91-3.39,0.91c-1.3,0-2.86-0.96-4.69-2.87c-0.52,0.26-0.78,0.7-0.78,1.3c0,0.52,0.09,1.04,0.26,1.56
			c1.56,3.3,3.91,4.95,7.03,4.95h7.55v-16.28l-7.95-7.94h-16.41V747.2h20.45l0.26-0.13l0.13,0.13h0.13v0.13l11.33,10.55l11.59-10.81
			l0.26,0.13h16.02C2359.64,748.24,2362.68,749.85,2365.54,752.02z"/>
		<linearGradient id="SVGID_30_" gradientUnits="userSpaceOnUse" x1="1142.385" y1="1337.7621" x2="2799.9924" y2="632.6105">
			<stop  offset="4.950500e-03" style="stop-color:#00ABB0"/>
			<stop  offset="0.4876" style="stop-color:#00C07D"/>
			<stop  offset="1" style="stop-color:#7BD14A"/>
		</linearGradient>
		<path class="st29" d="M2446.03,760.22h-49.75V747.2h67.34v65.91l6.64,5.08v11.85h-24.23v-41.16h-33.6v26.57h8.34
			c3.47,0,6.03-1.91,7.69-5.73c0.17-0.61,0.26-1.17,0.26-1.69c0-0.78-0.31-1.3-0.91-1.56c-1.91,2.17-3.56,3.26-4.95,3.26
			c-1.3,0-2.6-0.35-3.91-1.04c-1.91-1.3-2.87-3.17-2.87-5.6c0-1.39,0.26-2.91,0.78-4.56c1.3-1.65,2.39-2.65,3.26-3
			c0.61-0.26,1.39-0.39,2.34-0.39c0.43,0,0.95,0.04,1.56,0.13c6.16,1.22,10.9,6.47,14.2,15.76c0.61,1.56,0.91,3.21,0.91,4.95
			c0,4.43-1.91,9.12-5.73,14.07h-36.86v-57.96h49.49V760.22z"/>
		<linearGradient id="SVGID_31_" gradientUnits="userSpaceOnUse" x1="1156.0267" y1="1369.8296" x2="2813.634" y2="664.6781">
			<stop  offset="4.950500e-03" style="stop-color:#00ABB0"/>
			<stop  offset="0.4876" style="stop-color:#00C07D"/>
			<stop  offset="1" style="stop-color:#7BD14A"/>
		</linearGradient>
		<path class="st30" d="M2530.82,760.22l-10.42,20.32v32.56l6.64,5.08v11.85h-15.5l-8.73-7.81v-47.8l14.72-27.22h16.02v13.03
			H2530.82z"/>
		<linearGradient id="SVGID_32_" gradientUnits="userSpaceOnUse" x1="1164.4192" y1="1389.558" x2="2822.0266" y2="684.4065">
			<stop  offset="4.950500e-03" style="stop-color:#00ABB0"/>
			<stop  offset="0.4876" style="stop-color:#00C07D"/>
			<stop  offset="1" style="stop-color:#7BD14A"/>
		</linearGradient>
		<path class="st31" d="M2649.61,813.1H2616c-4.43-5.56-5.82-10.68-4.17-15.37c2.78-7.38,6.77-11.59,11.98-12.63
			c1.48-0.09,2.56,0,3.26,0.26c0.69,0.18,1.56,0.91,2.6,2.21c0.52,1.39,0.78,2.65,0.78,3.78c0,2-0.91,3.52-2.74,4.56
			c-0.87,0.52-1.82,0.78-2.87,0.78c-1.22,0-2.65-0.87-4.3-2.6c-0.61,0.44-0.78,1.3-0.52,2.6c1.21,3.13,3.39,4.69,6.51,4.69h6.64
			v-18.5h-25.79v30.22l6.64,5.08v11.85h-36.73l-37.12-47.24v-16.71h49.62v-5.86h-49.75V747.2h109.8v13.03h-42.46v5.86h42.2V813.1z
			 M2589.82,782.89h-28.39l23.84,30.22h4.56V782.89z"/>
		<linearGradient id="SVGID_33_" gradientUnits="userSpaceOnUse" x1="1182.8809" y1="1432.9561" x2="2840.4883" y2="727.8046">
			<stop  offset="4.950500e-03" style="stop-color:#00ABB0"/>
			<stop  offset="0.4876" style="stop-color:#00C07D"/>
			<stop  offset="1" style="stop-color:#7BD14A"/>
		</linearGradient>
		<path class="st32" d="M2692.07,830.03l-32.82-19.15v-9.9l15.63-18.1l-17.19-16.93V747.2h73.07v65.91l6.64,5.08v11.85H2692.07z
			 M2670.06,843.32c-2.95,0-5.47-1.04-7.55-3.13c-2.08-2.08-3.13-4.65-3.13-7.68c0-2.78,1.04-5.21,3.13-7.29
			c2.08-2.08,4.6-3.13,7.55-3.13c2.95,0,5.51,1.04,7.68,3.13c2.08,2.08,3.13,4.52,3.13,7.29c0,3.04-1.04,5.6-3.13,7.68
			C2675.57,842.28,2673.01,843.32,2670.06,843.32z M2678.78,803.2l17.58,10.03h16.8v-53.01h-34.52v1.17l19.15,20.45L2678.78,803.2z"
			/>
		<linearGradient id="SVGID_34_" gradientUnits="userSpaceOnUse" x1="1191.5626" y1="1453.3644" x2="2849.1699" y2="748.2129">
			<stop  offset="4.950500e-03" style="stop-color:#00ABB0"/>
			<stop  offset="0.4876" style="stop-color:#00C07D"/>
			<stop  offset="1" style="stop-color:#7BD14A"/>
		</linearGradient>
		<path class="st33" d="M2761.75,747.2v65.91l6.64,5.08v11.85h-24.23v-69.81H2740V747.2H2761.75z"/>
		<linearGradient id="SVGID_35_" gradientUnits="userSpaceOnUse" x1="1200.7134" y1="1474.8751" x2="2858.3208" y2="769.7237">
			<stop  offset="4.950500e-03" style="stop-color:#00ABB0"/>
			<stop  offset="0.4876" style="stop-color:#00C07D"/>
			<stop  offset="1" style="stop-color:#7BD14A"/>
		</linearGradient>
		<path class="st34" d="M2828.69,760.22h-53.79V747.2h71.38v65.91l6.64,5.08v11.85h-38.81l-39.2-45.33v-16.8h53.79V760.22z
			 M2787.14,830.03c-2.95,0-5.47-1.04-7.55-3.13c-2.08-2.08-3.13-4.64-3.13-7.68c0-2.78,1.04-5.21,3.13-7.29
			c2.08-2.08,4.6-3.13,7.55-3.13c2.95,0,5.51,1.04,7.69,3.13c2.08,2.08,3.12,4.52,3.12,7.29c0,3.04-1.04,5.6-3.12,7.68
			C2792.66,828.99,2790.09,830.03,2787.14,830.03z M2828.69,784.71h-31.78l24.62,28.52h7.16V784.71z"/>
	</g>
	<linearGradient id="SVGID_36_" gradientUnits="userSpaceOnUse" x1="1639.4008" y1="-377.7542" x2="-790.1971" y2="1767.7778">
		<stop  offset="4.950500e-03" style="stop-color:#00ABB0"/>
		<stop  offset="0.4876" style="stop-color:#00C07D"/>
		<stop  offset="1" style="stop-color:#7BD14A"/>
	</linearGradient>
	<path class="st35" d="M762.34,172.48c134.15,91.6,202.54,261.01,158.12,426.81c-56.25,209.9-271.99,334.45-481.88,278.22
		c-171.51-45.96-286.02-198.38-291.5-367.1c23.74,138.46,125.39,257.41,270,296.16c198.1,53.08,401.7-64.48,454.78-262.57
		C909.14,404.85,862.24,262.99,762.34,172.48L762.34,172.48z"/>
	<linearGradient id="SVGID_37_" gradientUnits="userSpaceOnUse" x1="1510.8873" y1="-523.2826" x2="-918.7105" y2="1622.2494">
		<stop  offset="4.950500e-03" style="stop-color:#00ABB0"/>
		<stop  offset="0.4876" style="stop-color:#00C07D"/>
	</linearGradient>
	<path class="st36" d="M322.62,715.3C209.42,638.01,151.71,495.06,189.2,355.15c47.46-177.12,229.51-282.23,406.63-234.76
		c144.72,38.78,241.34,167.4,245.97,309.77c-20.03-116.84-105.8-217.22-227.82-249.91C446.81,135.46,275,234.65,230.21,401.81
		C198.75,519.23,238.33,638.94,322.62,715.3L322.62,715.3z"/>
	<g>
		<linearGradient id="SVGID_38_" gradientUnits="userSpaceOnUse" x1="-504.0028" y1="1404.2402" x2="946.4036" y2="194.4542">
			<stop  offset="0" style="stop-color:#FF1900"/>
			<stop  offset="1" style="stop-color:#FFD200"/>
		</linearGradient>
		<path class="st37" d="M518.23,567.66v61.83c0,61.8,36.96,113.28,82.43,113.28c44.63,0,81.54-51.49,81.54-113.28v-76.43
			c-26.61-5.13-47.21-29.2-47.21-58.35c0-32.62,26.61-59.22,59.22-59.22c32.63,0,60.08,26.61,60.08,59.22
			c0,29.15-20.6,53.22-48.09,58.35v76.43c0,75.5-47.18,136.46-105.55,136.46c-58.38,0-106.47-60.95-106.47-136.46v-61.83
			c-24-3.43-48.05-16.31-69.48-38.62c-3.45-3.45-4.34-7.72-3.45-12.03c-28.34-35.19-45.5-82.38-45.5-118.45
			c0-55.79,26.61-61.78,71.25-71.25l0,0c2.57-5.15,8.56-9.42,15.45-9.42c9.43,0,17.15,7.69,17.15,16.28
			c0,8.6-7.72,15.47-17.15,15.47c-4.27,0-7.73-0.87-10.3-3.45l0,0c-43.8,9.44-55.79,12.01-55.79,52.36
			c0,31.77,16.3,74.68,41.19,105.6c4.31,0,8.58,1.72,11.15,5.13c12.88,13.72,33.47,30.04,57.52,30.04
			c24.03,0,43.77-16.31,56.67-30.04c3.41-3.41,6.83-5.13,11.13-5.13c24.91-30.92,41.19-73.82,41.19-105.6
			c0-40.35-11.13-42.92-54.9-52.36l0,0c-3.45,2.57-6.87,3.45-10.32,3.45c-9.44,0-17.16-6.88-17.16-15.47
			c0-8.59,7.73-16.28,17.16-16.28c6.88,0,12.03,4.27,15.47,9.42l0,0c44.64,9.47,71.23,15.46,71.23,71.25
			c0,36.06-17.19,84.1-45.51,118.45c0,4.3-0.81,8.58-4.27,12.03C566.32,551.34,542.29,564.22,518.23,567.66L518.23,567.66z"/>
	</g>
	<linearGradient id="SVGID_39_" gradientUnits="userSpaceOnUse" x1="1099.2788" y1="1014.0368" x2="2701.8518" y2="332.2971">
		<stop  offset="4.950500e-03" style="stop-color:#00ABB0"/>
		<stop  offset="0.4876" style="stop-color:#00C07D"/>
		<stop  offset="1" style="stop-color:#7BD14A"/>
	</linearGradient>
	<rect x="956.74" y="667.36" class="st38" width="1887.64" height="11.62"/>
</g>
</svg>
